<?xml version="1.0" encoding="UTF-8" standalone="no"?>
<!-- Created with Inkscape (http://www.inkscape.org/) -->

<svg
   width="229.62318mm"
   height="129.50713mm"
   viewBox="0 0 229.62318 129.50711"
   version="1.1"
   id="svg1"
   xml:space="preserve"
   inkscape:version="1.4.2 (f4327f4, 2025-05-13)"
   sodipodi:docname="architecture-spring-csr-webapi-jsonplaceholder.svg"
   xmlns:inkscape="http://www.inkscape.org/namespaces/inkscape"
   xmlns:sodipodi="http://sodipodi.sourceforge.net/DTD/sodipodi-0.dtd"
   xmlns="http://www.w3.org/2000/svg"
   xmlns:svg="http://www.w3.org/2000/svg"><sodipodi:namedview
     id="namedview1"
     pagecolor="#ffffff"
     bordercolor="#000000"
     borderopacity="0.25"
     inkscape:showpageshadow="2"
     inkscape:pageopacity="0.0"
     inkscape:pagecheckerboard="0"
     inkscape:deskcolor="#d1d1d1"
     inkscape:document-units="mm"
     inkscape:zoom="0.57950715"
     inkscape:cx="657.45522"
     inkscape:cy="273.50827"
     inkscape:window-width="1920"
     inkscape:window-height="1017"
     inkscape:window-x="1912"
     inkscape:window-y="-8"
     inkscape:window-maximized="1"
     inkscape:current-layer="layer1"
     showgrid="false"
     inkscape:export-bgcolor="#ffffffff"><inkscape:page
       x="0"
       y="0"
       width="229.62318"
       height="129.50711"
       id="page2"
       margin="0"
       bleed="0" /></sodipodi:namedview><defs
     id="defs1"><marker
       style="overflow:visible"
       id="ArrowWide"
       refX="0"
       refY="0"
       orient="auto-start-reverse"
       inkscape:stockid="Wide arrow"
       markerWidth="1"
       markerHeight="1"
       viewBox="0 0 1 1"
       inkscape:isstock="true"
       inkscape:collect="always"
       preserveAspectRatio="xMidYMid"><path
         style="fill:none;stroke:context-stroke;stroke-width:1;stroke-linecap:butt"
         d="M 3,-3 0,0 3,3"
         transform="rotate(180,0.125,0)"
         sodipodi:nodetypes="ccc"
         id="path7" /></marker><marker
       style="overflow:visible"
       id="ArrowWide-2"
       refX="0"
       refY="0"
       orient="auto-start-reverse"
       inkscape:stockid="Wide arrow"
       markerWidth="1"
       markerHeight="1"
       viewBox="0 0 1 1"
       inkscape:isstock="true"
       inkscape:collect="always"
       preserveAspectRatio="xMidYMid"><path
         style="fill:none;stroke:context-stroke;stroke-width:1;stroke-linecap:butt"
         d="M 3,-3 0,0 3,3"
         transform="rotate(180,0.125,0)"
         sodipodi:nodetypes="ccc"
         id="path7-4" /></marker><marker
       style="overflow:visible"
       id="ArrowWide-24"
       refX="0"
       refY="0"
       orient="auto-start-reverse"
       inkscape:stockid="Wide arrow"
       markerWidth="1"
       markerHeight="1"
       viewBox="0 0 1 1"
       inkscape:isstock="true"
       inkscape:collect="always"
       preserveAspectRatio="xMidYMid"><path
         style="fill:none;stroke:context-stroke;stroke-width:1;stroke-linecap:butt"
         d="M 3,-3 0,0 3,3"
         transform="rotate(180,0.125,0)"
         sodipodi:nodetypes="ccc"
         id="path7-5" /></marker><marker
       style="overflow:visible"
       id="ArrowWide-24-1"
       refX="0"
       refY="0"
       orient="auto-start-reverse"
       inkscape:stockid="Wide arrow"
       markerWidth="1"
       markerHeight="1"
       viewBox="0 0 1 1"
       inkscape:isstock="true"
       inkscape:collect="always"
       preserveAspectRatio="xMidYMid"><path
         style="fill:none;stroke:context-stroke;stroke-width:1;stroke-linecap:butt"
         d="M 3,-3 0,0 3,3"
         transform="rotate(180,0.125,0)"
         sodipodi:nodetypes="ccc"
         id="path7-5-4" /></marker></defs><g
     inkscape:label="Calque 1"
     inkscape:groupmode="layer"
     id="layer1"
     transform="translate(31.541337,-69.956942)"><rect
       style="fill:none;stroke:#5d5d5d;stroke-width:0.993689;stroke-linecap:round;stroke-opacity:1"
       id="rect1-5"
       width="114.6884"
       height="96.915054"
       x="82.896591"
       y="102.05218"
       ry="12.979693" /><text
       xml:space="preserve"
       style="font-size:9.66309px;font-family:Arial;-inkscape-font-specification:Arial;text-align:start;text-anchor:start;fill:#000000;fill-opacity:1;stroke:none;stroke-width:0.978266;stroke-linecap:round"
       x="-28.664227"
       y="76.873978"
       id="text2"><tspan
         sodipodi:role="line"
         style="font-size:9.66309px;text-align:start;text-anchor:start;stroke-width:0.978266"
         x="-28.664227"
         y="76.873978"
         id="tspan39">Architecture client-serveur</tspan><tspan
         sodipodi:role="line"
         style="font-size:9.66309px;text-align:start;text-anchor:start;stroke-width:0.978266"
         x="-28.664227"
         y="88.952843"
         id="tspan40">&quot;Client Side Rendering&quot; avec Web API</tspan></text><text
       xml:space="preserve"
       style="font-size:5.64444px;font-family:Arial;-inkscape-font-specification:Arial;text-align:start;text-anchor:start;fill:#008000;fill-opacity:1;stroke:#5d5d5d;stroke-width:0.978266;stroke-linecap:round;stroke-opacity:1"
       x="95.425697"
       y="108.65631"
       id="text3-4"><tspan
         sodipodi:role="line"
         id="tspan3-7"
         style="font-size:5.64444px;text-align:start;text-anchor:start;fill:#404040;fill-opacity:1;stroke:none;stroke-width:0.978266"
         x="95.425697"
         y="108.65631">Serveur :</tspan><tspan
         sodipodi:role="line"
         style="font-size:5.64444px;text-align:start;text-anchor:start;fill:#404040;fill-opacity:1;stroke:none;stroke-width:0.978266"
         x="95.425697"
         y="115.71186"
         id="tspan11">https://jsonplaceholder.typicode.com/</tspan></text><rect
       style="fill:none;stroke:#3c3c3c;stroke-width:0.666239;stroke-linecap:round;stroke-opacity:1"
       id="rect1"
       width="63.74411"
       height="78.383842"
       x="-31.208218"
       y="119.9664"
       ry="10.497838" /><text
       xml:space="preserve"
       style="font-size:12.424px;font-family:Arial;-inkscape-font-specification:Arial;text-align:center;text-anchor:middle;fill:#008000;fill-opacity:1;stroke:#5d5d5d;stroke-width:0.978266;stroke-linecap:round;stroke-opacity:1"
       x="-10.693709"
       y="135.66902"
       id="text3"><tspan
         sodipodi:role="line"
         id="tspan3"
         style="font-size:12.424px;fill:#404040;fill-opacity:1;stroke:none;stroke-width:0.978266"
         x="-10.693709"
         y="135.66902">Client</tspan></text><g
       id="g30"
       transform="matrix(0.97826567,0,0,0.97826567,-43.49734,51.719041)"><g
         id="website_favorite_site_star_2_"
         transform="matrix(0.54206081,0,0,0.54206081,17.904325,98.722089)"><g
           id="website_favorite_site_star_1_"><g
             id="response_time_3_"><circle
               cx="7.5"
               cy="5.5"
               fill="#263238"
               id="XMLID_1569_"
               r="0.5" /><circle
               cx="5.5"
               cy="5.5"
               fill="#263238"
               id="XMLID_1568_"
               r="0.5" /><circle
               cx="3.5"
               cy="5.5"
               fill="#263238"
               id="XMLID_1567_"
               r="0.5" /><path
               d="M 30.5,8 H 1.5 C 1.224,8 1,7.776 1,7.5 1,7.224 1.224,7 1.5,7 h 29 C 30.776,7 31,7.224 31,7.5 31,7.776 30.776,8 30.5,8 Z"
               fill="#263238"
               id="XMLID_1566_" /><path
               d="M 29.5,3 H 2.5 C 1.673,3 1,3.673 1,4.5 v 23 C 1,28.327 1.673,29 2.5,29 h 27 C 30.327,29 31,28.327 31,27.5 V 4.5 C 31,3.673 30.327,3 29.5,3 Z M 30,27.5 C 30,27.775 29.775,28 29.5,28 H 2.5 C 2.225,28 2,27.775 2,27.5 V 4.5 C 2,4.225 2.225,4 2.5,4 h 27 C 29.775,4 30,4.225 30,4.5 Z"
               fill="#263238"
               id="XMLID_3165_" /></g></g><g
           id="XMLID_1606_"><g
             id="XMLID_2018_"><path
               d="m 24.5,22 h 3 C 27.776,22 28,21.776 28,21.5 28,21.224 27.776,21 27.5,21 h -3 c -0.276,0 -0.5,0.224 -0.5,0.5 0,0.276 0.224,0.5 0.5,0.5 z"
               fill="#263238"
               id="XMLID_2019_" /></g><g
             id="XMLID_2016_"><path
               d="m 17.5,24 h 3 C 20.776,24 21,23.776 21,23.5 21,23.224 20.776,23 20.5,23 h -3 c -0.276,0 -0.5,0.224 -0.5,0.5 0,0.276 0.224,0.5 0.5,0.5 z"
               fill="#263238"
               id="XMLID_2017_" /></g><g
             id="XMLID_2014_"><path
               d="m 17.5,26 h 5 C 22.776,26 23,25.776 23,25.5 23,25.224 22.776,25 22.5,25 h -5 c -0.276,0 -0.5,0.224 -0.5,0.5 0,0.276 0.224,0.5 0.5,0.5 z"
               fill="#263238"
               id="XMLID_2015_" /></g><g
             id="XMLID_2012_"><path
               d="m 24.5,26 h 1 C 25.776,26 26,25.776 26,25.5 26,25.224 25.776,25 25.5,25 h -1 c -0.276,0 -0.5,0.224 -0.5,0.5 0,0.276 0.224,0.5 0.5,0.5 z"
               fill="#263238"
               id="XMLID_2013_" /></g><g
             id="XMLID_2010_"><path
               d="m 17.5,22 h 5 C 22.776,22 23,21.776 23,21.5 23,21.224 22.776,21 22.5,21 h -5 c -0.276,0 -0.5,0.224 -0.5,0.5 0,0.276 0.224,0.5 0.5,0.5 z"
               fill="#263238"
               id="XMLID_2011_" /></g><g
             id="XMLID_2008_"><path
               d="m 22.5,24 h 5 C 27.776,24 28,23.776 28,23.5 28,23.224 27.776,23 27.5,23 h -5 c -0.276,0 -0.5,0.224 -0.5,0.5 0,0.276 0.224,0.5 0.5,0.5 z"
               fill="#263238"
               id="XMLID_2009_" /></g><g
             id="XMLID_1989_"><path
               d="m 14.5,24 h -3 C 11.224,24 11,23.776 11,23.5 11,23.224 11.224,23 11.5,23 h 3 c 0.276,0 0.5,0.224 0.5,0.5 0,0.276 -0.224,0.5 -0.5,0.5 z"
               fill="#263238"
               id="XMLID_2007_" /></g><g
             id="XMLID_1987_"><path
               d="m 12.5,26 h -3 C 9.224,26 9,25.776 9,25.5 9,25.224 9.224,25 9.5,25 h 3 c 0.276,0 0.5,0.224 0.5,0.5 0,0.276 -0.224,0.5 -0.5,0.5 z"
               fill="#263238"
               id="XMLID_1988_" /></g><g
             id="XMLID_1611_"><path
               d="m 7.5,26 h -3 C 4.224,26 4,25.776 4,25.5 4,25.224 4.224,25 4.5,25 h 3 C 7.776,25 8,25.224 8,25.5 8,25.776 7.776,26 7.5,26 Z"
               fill="#263238"
               id="XMLID_1612_" /></g><g
             id="XMLID_1609_"><path
               d="M 15.5,18 H 5.5 C 5.224,18 5,17.776 5,17.5 5,17.224 5.224,17 5.5,17 h 10 c 0.276,0 0.5,0.224 0.5,0.5 0,0.276 -0.224,0.5 -0.5,0.5 z"
               fill="#263238"
               id="XMLID_1610_" /></g><g
             id="XMLID_1985_"><path
               d="M 14.5,22 H 4.5 C 4.224,22 4,21.776 4,21.5 4,21.224 4.224,21 4.5,21 h 10 c 0.276,0 0.5,0.224 0.5,0.5 0,0.276 -0.224,0.5 -0.5,0.5 z"
               fill="#263238"
               id="XMLID_1986_" /></g><g
             id="XMLID_1607_"><path
               d="m 9.5,24 h -5 C 4.224,24 4,23.776 4,23.5 4,23.224 4.224,23 4.5,23 h 5 C 9.776,23 10,23.224 10,23.5 10,23.776 9.776,24 9.5,24 Z"
               fill="#263238"
               id="XMLID_1608_" /></g></g><g
           id="XMLID_1990_"><path
             d="M 27.5,18 H 4.5 C 4.224,18 4,17.776 4,17.5 v -7 C 4,10.224 4.224,10 4.5,10 h 23 c 0.276,0 0.5,0.224 0.5,0.5 v 7 C 28,17.776 27.776,18 27.5,18 Z M 5,17 H 27 V 11 H 5 Z"
             fill="#263238"
             id="XMLID_1991_" /></g></g><text
         xml:space="preserve"
         style="font-size:7.05556px;font-family:Arial;-inkscape-font-specification:Arial;text-align:start;text-anchor:start;fill:#404040;fill-opacity:1;stroke:none;stroke-width:1;stroke-linecap:round;stroke-opacity:1"
         x="37.621536"
         y="105.49055"
         id="text4"><tspan
           sodipodi:role="line"
           id="tspan4"
           style="font-size:7.05556px;text-align:start;text-anchor:start;stroke-width:1"
           x="37.621536"
           y="105.49055">Navigateur</tspan><tspan
           sodipodi:role="line"
           style="font-size:7.05556px;text-align:start;text-anchor:start;stroke-width:1"
           x="37.621536"
           y="114.31"
           id="tspan5">Web</tspan></text></g><text
       xml:space="preserve"
       style="font-size:6.21199px;font-family:Arial;-inkscape-font-specification:Arial;text-align:start;text-anchor:start;fill:#008000;fill-opacity:1;stroke:none;stroke-width:1.07609;stroke-linecap:round;stroke-dasharray:none;stroke-opacity:1"
       x="54.58783"
       y="174.42603"
       id="text13"><tspan
         sodipodi:role="line"
         id="tspan13"
         style="fill:#008000;stroke-width:1.07609"
         x="54.58783"
         y="174.42603">JSon</tspan></text><rect
       style="fill:none;fill-opacity:1;stroke:#5d5d5d;stroke-width:0.698613;stroke-linecap:round;stroke-dasharray:none;stroke-opacity:1"
       id="rect14"
       width="53.223404"
       height="57.965546"
       x="82.902573"
       y="120.54255"
       ry="0" /><g
       id="g12"
       transform="translate(-0.18220859,8.3815951)"><text
         xml:space="preserve"
         style="font-size:6.21199px;font-family:Arial;-inkscape-font-specification:Arial;text-align:start;text-anchor:start;fill:#8e0782;fill-opacity:1;stroke:#489f00;stroke-width:1.07609;stroke-linecap:round;stroke-dasharray:none;stroke-opacity:1"
         x="39.827145"
         y="105.22517"
         id="text17"><tspan
           sodipodi:role="line"
           style="fill:#8e0782;fill-opacity:1;stroke:none;stroke-width:1.07609"
           x="39.827145"
           y="105.22517"
           id="tspan18"><tspan
   style="fill:#000000"
   id="tspan10">HTTP</tspan> :</tspan><tspan
           sodipodi:role="line"
           style="fill:#d4aa00;fill-opacity:1;stroke:none;stroke-width:1.07609"
           x="39.827145"
           y="112.99015"
           id="tspan6">- POST</tspan><tspan
           sodipodi:role="line"
           style="fill:#008000;fill-opacity:1;stroke:none;stroke-width:1.07609"
           x="39.827145"
           y="120.75514"
           id="tspan7">- GET</tspan><tspan
           sodipodi:role="line"
           style="fill:#8e0782;fill-opacity:1;stroke:none;stroke-width:1.07609"
           x="39.827145"
           y="128.52013"
           id="tspan8">- PUT/<tspan
   style="fill:#008080"
   id="tspan12">PATCH</tspan></tspan><tspan
           sodipodi:role="line"
           style="fill:#8e0782;fill-opacity:1;stroke:none;stroke-width:1.07609"
           x="39.827145"
           y="136.28511"
           id="tspan9">- <tspan
   style="fill:#aa0000"
   id="tspan14">DELETE</tspan></tspan><tspan
           sodipodi:role="line"
           style="fill:#8e0782;fill-opacity:1;stroke:none;stroke-width:1.07609"
           x="39.827145"
           y="144.05011"
           id="tspan20" /><tspan
           sodipodi:role="line"
           style="fill:#8e0782;fill-opacity:1;stroke:none;stroke-width:1.07609"
           x="39.827145"
           y="151.81509"
           id="tspan19" /></text></g><g
       id="g5"
       transform="matrix(0.97826567,0,0,0.97826567,-8.085767,-1.1674086)"
       style="fill:#333333"><text
         xml:space="preserve"
         style="font-size:7.21231px;font-family:Arial;-inkscape-font-specification:Arial;text-align:center;text-anchor:middle;fill:#333333;stroke:#000000;stroke-width:0.511108;stroke-linecap:round"
         x="120.41352"
         y="133.41711"
         id="text5"><tspan
           sodipodi:role="line"
           id="tspan2"
           style="font-size:7.21231px;fill:#333333;stroke:none;stroke-width:0.511109"
           x="120.41352"
           y="133.41711">Web api</tspan></text></g><path
       style="fill:#920f87;fill-opacity:1;stroke:#b109ac;stroke-width:1.193;stroke-linecap:round;stroke-dasharray:none;stroke-opacity:1;marker-start:url(#ArrowWide)"
       d="M 88.082352,149.38014 H 34.358368"
       id="path5" /><path
       style="fill:#1a1a1a;fill-opacity:1;stroke:#181717;stroke-width:1;stroke-linecap:round;stroke-dasharray:none;stroke-opacity:1;marker-start:url(#ArrowWide-24)"
       d="m -18.735026,175.23967 h -7.508212"
       id="path5-7" /><path
       style="fill:#000000;fill-opacity:1;stroke:#28b505;stroke-width:1.18703;stroke-linecap:round;stroke-dasharray:none;stroke-opacity:1;marker-start:url(#ArrowWide-2)"
       d="M 35.170657,166.53163 H 88.35799"
       id="path5-6" /><path
       d="m 97.38984,160.57318 2.51096,4.34398 a 1.255481,1.255481 0 0 0 1.715,0.45837 l 1.75266,-1.01194 c 0.72814,0.57378 1.53292,1.04455 2.37911,1.39611 v 2.00625 a 1.255481,1.255481 0 0 0 1.25551,1.25551 h 5.02192 a 1.255481,1.255481 0 0 0 1.25545,-1.25551 v -2.00625 a 10.161863,10.161863 0 0 0 2.37916,-1.39611 l 1.75266,1.01194 c 0.59884,0.34546 1.36974,0.13816 1.71499,-0.45837 l 2.51092,-4.34398 a 1.260503,1.260503 0 0 0 -0.45838,-1.71498 l -1.72247,-0.99561 a 9.6458608,9.6458608 0 0 0 -0.001,-2.79219 l 1.72247,-0.99562 c 0.59766,-0.34545 0.80479,-1.11734 0.45838,-1.71497 l -2.51094,-4.34393 a 1.255481,1.255481 0 0 0 -1.71497,-0.45838 l -1.75266,1.0119 a 10.086534,10.086534 0 0 0 -2.37788,-1.39611 v -2.00625 a 1.255481,1.255481 0 0 0 -1.2555,-1.25546 h -5.02191 a 1.255481,1.255481 0 0 0 -1.25547,1.25546 v 2.00625 a 10.161863,10.161863 0 0 0 -2.37916,1.39611 l -1.75137,-1.0119 a 1.2542255,1.2542255 0 0 0 -1.71501,0.45838 l -2.51096,4.34393 a 1.260503,1.260503 0 0 0 0.45838,1.71497 l 1.72253,0.99562 a 9.6458608,9.6458608 0 0 0 0,2.79219 l -1.72253,0.99561 c -0.5976,0.34546 -0.804766,1.11738 -0.45838,1.71498 z m 12.12294,-9.12861 c 2.76959,0 5.02191,2.25231 5.02191,5.02194 0,2.7696 -2.25232,5.02191 -5.02191,5.02191 -2.7696,0 -5.02196,-2.25231 -5.02196,-5.02191 0,-2.76963 2.25236,-5.02194 5.02196,-5.02194 z"
       id="path1"
       style="fill:#333333;stroke-width:1.25548" /><text
       xml:space="preserve"
       style="font-size:5.64444px;line-height:1;font-family:Arial;-inkscape-font-specification:Arial;text-align:start;writing-mode:lr-tb;direction:ltr;text-anchor:start;fill:#1a1a1a;stroke:#181717;stroke-width:1;stroke-linecap:square;stroke-dasharray:none;stroke-opacity:1"
       x="-16.52923"
       y="176.96805"
       id="text15"><tspan
         sodipodi:role="line"
         id="tspan15"
         style="stroke:none;stroke-width:1"
         x="-16.52923"
         y="176.96805">traitement du JSon</tspan><tspan
         sodipodi:role="line"
         style="stroke:none;stroke-width:1"
         x="-16.52923"
         y="182.61249"
         id="tspan16">en JS</tspan></text><path
       d="m 179.23216,146.34793 v 2.34596 c 0,2.0629 -5.14828,3.74993 -11.4862,3.74993 -6.33792,0 -11.4862,-1.68703 -11.4862,-3.74839 v -2.3475 c 0,-2.06341 5.14828,-3.74942 11.4862,-3.74942 6.33792,0 11.4862,1.68601 11.4862,3.74942 z m 0,5.27545 v 5.27647 c 0,2.06137 -5.14828,3.7484 -11.4862,3.7484 -6.33792,0 -11.4862,-1.68703 -11.4862,-3.7484 v -5.27647 c 2.46748,1.69832 6.98402,2.49312 11.4862,2.49312 4.50218,0 9.01974,-0.79583 11.4862,-2.49312 z m 0,8.20443 v 5.27647 c 0,2.06136 -5.14828,3.7484 -11.4862,3.7484 -6.33792,0 -11.4862,-1.68601 -11.4862,-3.74994 v -5.27493 c 2.46748,1.69883 6.98402,2.49363 11.4862,2.49363 4.50218,0 9.01974,-0.79634 11.4862,-2.49363 z"
       id="path1-2"
       style="fill:#333333;stroke-width:0.0512775" /><path
       style="fill:#333333;stroke:none;stroke-width:1;stroke-linecap:square;stroke-dasharray:none;stroke-opacity:1"
       d="m 128.14266,149.17116 h 25.5677"
       id="path16" /><path
       style="fill:#333333;stroke:#181717;stroke-width:1;stroke-linecap:square;stroke-dasharray:none;stroke-opacity:1;marker-end:url(#ArrowWide-24)"
       d="m 153.61894,162.29744 h -25.5677"
       id="path17" /><path
       style="fill:#333333;stroke:#181717;stroke-width:1;stroke-linecap:square;stroke-dasharray:none;stroke-opacity:1;marker-end:url(#ArrowWide-24-1)"
       d="m 127.59413,150.10178 h 25.5677"
       id="path17-2" /></g><style
     id="style1">.st0{fill:#77bc1f}</style></svg>
